<mxfile host="app.diagrams.net" modified="2021-02-01T05:28:53.571Z" agent="5.0 (Macintosh; Intel Mac OS X 11_1_0) AppleWebKit/537.36 (KHTML, like Gecko) Chrome/88.0.4324.96 Safari/537.36" etag="zNMZ6UB-MTe7DYKGyp_1" version="14.2.9" type="github">
  <diagram name="Page-1" id="f1b7ffb7-ca1e-a977-7cf5-a751b3c06c05">
    <mxGraphModel dx="940" dy="477" grid="1" gridSize="10" guides="1" tooltips="1" connect="1" arrows="1" fold="1" page="1" pageScale="1" pageWidth="826" pageHeight="1169" background="#ffffff" math="0" shadow="0">
      <root>
        <mxCell id="0" />
        <mxCell id="1" parent="0" />
        <mxCell id="B8A3A9K-5DqQreei3ml_-83" value="" style="strokeWidth=1;shadow=0;dashed=0;align=center;html=1;shape=mxgraph.mockup.containers.rrect;rSize=0;strokeColor=#666666;" vertex="1" parent="1">
          <mxGeometry x="270" y="120" width="180" height="220" as="geometry" />
        </mxCell>
        <mxCell id="B8A3A9K-5DqQreei3ml_-84" value="Ciencia" style="strokeColor=inherit;fillColor=inherit;gradientColor=inherit;strokeWidth=1;shadow=0;dashed=0;align=center;html=1;shape=mxgraph.mockup.containers.rrect;rSize=0;fontSize=17;fontColor=#666666;fontStyle=1;resizeWidth=1;" vertex="1" parent="B8A3A9K-5DqQreei3ml_-83">
          <mxGeometry width="180" height="26" relative="1" as="geometry" />
        </mxCell>
        <mxCell id="B8A3A9K-5DqQreei3ml_-85" value="Arte" style="strokeColor=inherit;fillColor=inherit;gradientColor=inherit;strokeWidth=1;shadow=0;dashed=0;align=center;html=1;shape=mxgraph.mockup.containers.rrect;rSize=0;fontSize=17;fontColor=#666666;fontStyle=1;resizeWidth=1;" vertex="1" parent="B8A3A9K-5DqQreei3ml_-83">
          <mxGeometry width="180" height="26" relative="1" as="geometry">
            <mxPoint y="26" as="offset" />
          </mxGeometry>
        </mxCell>
        <mxCell id="B8A3A9K-5DqQreei3ml_-86" value="Historia" style="strokeWidth=1;shadow=0;dashed=0;align=center;html=1;shape=mxgraph.mockup.containers.rrect;rSize=0;fontSize=17;fontColor=#ffffff;fontStyle=1;fillColor=#008cff;strokeColor=#008cff;resizeWidth=1;" vertex="1" parent="B8A3A9K-5DqQreei3ml_-83">
          <mxGeometry width="180" height="26" relative="1" as="geometry">
            <mxPoint y="52" as="offset" />
          </mxGeometry>
        </mxCell>
        <mxCell id="B8A3A9K-5DqQreei3ml_-87" value="Salud" style="strokeColor=inherit;fillColor=inherit;gradientColor=inherit;strokeWidth=1;shadow=0;dashed=0;align=center;html=1;shape=mxgraph.mockup.containers.rrect;rSize=0;fontSize=17;fontColor=#666666;fontStyle=1;resizeWidth=1;" vertex="1" parent="B8A3A9K-5DqQreei3ml_-83">
          <mxGeometry y="1" width="180" height="26" relative="1" as="geometry">
            <mxPoint y="-26" as="offset" />
          </mxGeometry>
        </mxCell>
        <mxCell id="B8A3A9K-5DqQreei3ml_-88" value="&lt;b&gt;&lt;font style=&quot;font-size: 16px&quot;&gt;¿Sabías que?&lt;/font&gt;&lt;/b&gt;" style="rounded=0;whiteSpace=wrap;html=1;" vertex="1" parent="1">
          <mxGeometry x="270" width="180" height="60" as="geometry" />
        </mxCell>
        <mxCell id="B8A3A9K-5DqQreei3ml_-90" value="&lt;b&gt;&lt;font style=&quot;font-size: 16px&quot;&gt;Escoge una categoría&lt;/font&gt;&lt;/b&gt;" style="rounded=0;whiteSpace=wrap;html=1;" vertex="1" parent="1">
          <mxGeometry x="270" y="60" width="180" height="60" as="geometry" />
        </mxCell>
        <mxCell id="B8A3A9K-5DqQreei3ml_-91" value="" style="rounded=0;whiteSpace=wrap;html=1;" vertex="1" parent="1">
          <mxGeometry x="450" width="80" height="340" as="geometry" />
        </mxCell>
        <mxCell id="B8A3A9K-5DqQreei3ml_-92" value="&lt;b&gt;&lt;font style=&quot;font-size: 16px&quot;&gt;Config&lt;/font&gt;&lt;/b&gt;" style="text;html=1;strokeColor=none;fillColor=none;align=center;verticalAlign=middle;whiteSpace=wrap;rounded=0;" vertex="1" parent="1">
          <mxGeometry x="470" y="20" width="40" height="20" as="geometry" />
        </mxCell>
        <mxCell id="B8A3A9K-5DqQreei3ml_-94" value="&lt;b style=&quot;font-size: 15px&quot;&gt;¿Sabías qué?&lt;br&gt;&lt;br&gt;Tu app de conocimiento&lt;br&gt;&lt;br&gt;&lt;br&gt;&lt;br&gt;por V Rivas&lt;br&gt;&lt;br&gt;&lt;br&gt;&lt;br&gt;&lt;/b&gt;" style="rounded=0;whiteSpace=wrap;html=1;" vertex="1" parent="1">
          <mxGeometry width="220" height="340" as="geometry" />
        </mxCell>
        <mxCell id="B8A3A9K-5DqQreei3ml_-97" value="&lt;b&gt;&lt;font style=&quot;font-size: 16px&quot;&gt;Ayuda&lt;/font&gt;&lt;/b&gt;" style="text;html=1;strokeColor=none;fillColor=none;align=center;verticalAlign=middle;whiteSpace=wrap;rounded=0;" vertex="1" parent="1">
          <mxGeometry x="480" y="100" width="10" height="20" as="geometry" />
        </mxCell>
        <mxCell id="B8A3A9K-5DqQreei3ml_-98" value="&lt;b&gt;&lt;font style=&quot;font-size: 16px&quot;&gt;Acerca de&lt;/font&gt;&lt;/b&gt;" style="text;html=1;strokeColor=none;fillColor=none;align=center;verticalAlign=middle;whiteSpace=wrap;rounded=0;" vertex="1" parent="1">
          <mxGeometry x="470" y="270" width="40" height="20" as="geometry" />
        </mxCell>
        <mxCell id="B8A3A9K-5DqQreei3ml_-99" value="" style="rounded=0;whiteSpace=wrap;html=1;" vertex="1" parent="1">
          <mxGeometry x="560" width="240" height="340" as="geometry" />
        </mxCell>
        <mxCell id="B8A3A9K-5DqQreei3ml_-100" value="&lt;b&gt;&lt;font style=&quot;font-size: 24px&quot;&gt;Historia&lt;/font&gt;&lt;/b&gt;" style="text;html=1;strokeColor=none;fillColor=none;align=center;verticalAlign=middle;whiteSpace=wrap;rounded=0;" vertex="1" parent="1">
          <mxGeometry x="660" y="20" width="40" height="20" as="geometry" />
        </mxCell>
        <mxCell id="B8A3A9K-5DqQreei3ml_-101" value="&lt;b&gt;&lt;font style=&quot;font-size: 18px&quot;&gt;¿Sabías que?&lt;/font&gt;&lt;/b&gt;" style="text;html=1;strokeColor=none;fillColor=none;align=center;verticalAlign=middle;whiteSpace=wrap;rounded=0;" vertex="1" parent="1">
          <mxGeometry x="660" y="70" width="40" height="30" as="geometry" />
        </mxCell>
        <mxCell id="B8A3A9K-5DqQreei3ml_-103" value="&lt;p style=&quot;text-align: justify&quot;&gt;&lt;span style=&quot;color: rgb(40 , 27 , 19) ; font-weight: 400 ; background-color: rgb(244 , 241 , 236)&quot;&gt;&lt;font style=&quot;line-height: 120% ; font-size: 15px&quot;&gt;La Campana de Dolores, con la que Hidalgo llamó al pueblo a unirse a la lucha independentista, llevaba originalmente el nombre de Esquilón San José. Esta campana data de 1768 y se mantuvo en Dolores Hidalgo hasta 1896.&lt;/font&gt;&lt;/span&gt;&lt;/p&gt;" style="text;html=1;strokeColor=none;fillColor=none;spacing=5;spacingTop=-20;whiteSpace=wrap;overflow=hidden;rounded=0;" vertex="1" parent="1">
          <mxGeometry x="585" y="120" width="190" height="170" as="geometry" />
        </mxCell>
      </root>
    </mxGraphModel>
  </diagram>
</mxfile>
